<?xml version="1.0" encoding="utf-8"?>
<!-- Generator: Adobe Illustrator 19.0.0, SVG Export Plug-In . SVG Version: 6.00 Build 0)  -->
<svg version="1.1" id="Layer_1" xmlns="http://www.w3.org/2000/svg" xmlns:xlink="http://www.w3.org/1999/xlink" x="0px" y="0px"
	 viewBox="0 0 513.1 270" style="enable-background:new 0 0 513.1 270;" xml:space="preserve">
<style type="text/css">
	.st0{fill:#0FA94D;}
</style>
<g>
	<g>
		<path id="XMLID_26_" class="st0" d="M449.5,138.7l-6.8-2.9c-2-0.9-3.3-2.3-3.3-4.5c0-2.9,2.6-5.3,6.4-5.3c6,0,7.7,4.2,7.7,7.5
			l12.3-2.3c-0.4-6-4.3-15.9-19.7-15.9c-12.1,0-20.2,8.2-20.2,17.5c0,6.4,3.2,11.4,11.3,14.8l5.9,2.6c3.1,1.4,4,3.2,4,5.2
			c0,2.7-2,5.3-6.5,5.3c-5.2,0-8.4-3.8-8.4-8.3c0-0.2,0-0.5,0.1-1l-12.1,2.3c0,5.8,3.1,17.7,20.6,17.7c13.7,0,20.4-9.2,20.4-17.3
			C461.2,147.7,457.6,142.3,449.5,138.7"/>
		<polygon id="XMLID_25_" class="st0" points="423.5,49.4 397.7,169.9 411.9,169.9 438.2,46.6 		"/>
		<polygon id="XMLID_24_" class="st0" points="401.6,53.5 376.8,169.9 391,169.9 416.6,50.7 		"/>
		<path id="XMLID_23_" class="st0" d="M381.4,117l-8.8,42.1c-0.8,3.9-1.2,6.9-1.2,9.6v1.2h-13.6c-0.1-0.6-0.1-1.8-0.1-2.3
			c0-0.9,0-1.6,0.1-3.2c-2.8,4.4-8.4,6.8-13.2,6.8c-11.3,0-17.3-7.4-17.3-17.3c0-1.9,0.2-4,1.1-7.8l5.6-26.3l14.8-2.8l-6.1,28.6
			c-0.5,2.4-0.7,4-0.7,5.1c0,4.7,2.5,7.9,7.9,7.9c5.9,0,9.5-4.8,10.8-10.9l6.1-28L381.4,117z"/>
		<path class="st0" d="M304.1,115.8c-6,0-11.3,2.3-14.2,5.5l10.4-48.8l-14.4,2.7l-8.6,40.4l-11.7,54.3h13.9l1.6-7.4
			c1.8,4.3,7.6,8.7,15.9,8.7c15.9,0,27.7-13.9,27.7-33.2C324.7,125.7,317.7,115.8,304.1,115.8 M295.6,158.5
			c-6.2,0-10.8-4.6-10.8-12.1c0-10.1,6.2-17.9,14.3-17.9c6.6,0,11.2,4,11.2,11.8C310.3,152.2,302.4,158.5,295.6,158.5z"/>
		<path class="st0" d="M271,117l-14.4,2.7l-0.7,3.3c-0.4-0.8-1.1-1.8-2.1-2.8c-2.3-2.3-6.4-4.5-13.2-4.5c-15.3,0-27,13.6-27,31.6
			c0,13,7.6,23.5,20.6,23.5c7.1,0,11.7-3.7,14.2-7.4c-0.1,1.3-0.2,2.9-0.2,4c0,0.8,0,1.6,0.1,2.5h13.2c-0.1-1-0.1-1.6-0.1-2
			c0-3,0.3-6.4,1-9.5L271,117z M238,158.5c-6.3,0-10.3-4.4-10.3-11.7c0-8.6,4.8-18.3,14-18.3c6.3,0,10.1,4.3,10.1,11.3
			C251.7,151.5,245.3,158.5,238,158.5z"/>
		<path class="st0" d="M202.8,119.2l-2.9,0.5l-10.7,50.1h14.2l11.3-52.9L202.8,119.2z M212.3,89c-5.3,0-9.7,4.3-9.7,9.5
			c0,4.4,3.3,7.7,7.8,7.7c5.1,0,9.8-4,9.8-9.6C220.2,92.4,217,89,212.3,89z"/>
		<path class="st0" d="M199.9,91.3l-15,2.8l-6,28.5c-1.7-3-6.1-6.9-15-6.9c-15.3,0-27,13.6-27,31.6c0,13.1,7.6,23.4,20.6,23.5
			c7.1,0,11.7-3.7,14.2-7.4c-0.1,1.2-0.2,2.7-0.2,3.8c0,0.9,0,1.7,0.1,2.7h13c-0.1-0.4-0.1-1.3-0.1-2.3c0.1-2.5,0.4-6,1.2-9.3
			L199.9,91.3z M161.4,158.5c-6.4,0-10.3-4.4-10.3-11.7c0-8.6,4.8-18.3,14-18.3c6.3,0,10.1,4.3,10.1,11.3
			C175.2,151.5,168.7,158.5,161.4,158.5z"/>
		<path id="XMLID_14_" class="st0" d="M118.2,115.6c-5.5,0-11.4,1.9-14.8,6.8c0.3-2.1,0.3-4.3,0.3-5.3l-14.1,2.6
			c0.2,1.7-0.4,4.3-0.8,6.3l-9.2,43.8h14.2l6.7-30.6c1.3-5.9,5-11,11.2-11c5.3,0,8,3.1,8,7.8c0,1-0.1,2-0.3,3.1l-6.5,30.6H127
			l6.9-32c0.4-1.9,0.7-3.8,0.7-5.6C134.5,122.7,128.7,115.6,118.2,115.6"/>
		<polygon id="XMLID_13_" class="st0" points="73.8,97.1 58.4,169.8 73.5,169.8 89.5,94.1 		"/>
	</g>
	<g>
		<polygon id="XMLID_12_" points="72.4,222.5 76.1,205 59.2,205 55.5,222.5 47.3,222.5 56.2,180.4 64.4,180.4 60.8,197.3 
			77.8,197.3 81.3,180.4 89.6,180.4 80.7,222.5 		"/>
		<path d="M115.7,179.5c11.2,0,18.6,7.6,18.6,18.8c0,16-11.2,25.1-22.6,25.1c-11.2,0-18.6-7.7-18.6-18.8
			C93.1,188.6,104.3,179.5,115.7,179.5 M115.2,187.3c-7.8,0-13.8,7.5-13.8,16.7c0,7.1,4.2,11.5,10.6,11.5c7.5,0,13.7-6.8,13.8-16.7
			C125.9,191.7,121.8,187.3,115.2,187.3z"/>
		<polygon id="XMLID_9_" points="176.4,222.5 182.6,193.1 164.7,222.5 158.2,222.5 152,193.5 145.8,222.5 138,222.5 146.9,180.4 
			156.9,180.4 163.6,210.6 181.7,180.4 193.4,180.4 184.5,222.5 		"/>
		<polygon id="XMLID_8_" points="196.5,222.5 205.4,180.4 231.6,180.4 229.9,188.1 212,188.1 209.9,197.7 226.2,197.7 224.7,205 
			208.3,205 206.3,214.7 224.3,214.7 222.7,222.5 		"/>
		<polygon id="XMLID_7_" points="254.1,222.5 263,180.4 271.2,180.4 263.9,214.6 282.2,214.6 280.5,222.5 		"/>
		<path d="M309.1,179.5c11.2,0,18.6,7.6,18.6,18.8c0,16-11.2,25.1-22.6,25.1c-11.2,0-18.6-7.7-18.6-18.8
			C286.5,188.6,297.6,179.5,309.1,179.5 M308.6,187.3c-7.8,0-13.8,7.5-13.8,16.7c0,7.1,4.2,11.5,10.6,11.5c7.5,0,13.7-6.8,13.8-16.7
			C319.2,191.7,315.2,187.3,308.6,187.3z"/>
		<path d="M357.6,212.8h-16.3l-5.4,9.6h-9.2l24.6-42.1h9.4l6.7,42.1H359L357.6,212.8z M345.5,205.4h11l-2.2-15.8L345.5,205.4z"/>
		<polygon id="XMLID_2_" points="401,222.5 388.8,192.7 382.5,222.5 374.4,222.5 383.3,180.4 392.7,180.4 403.9,208.5 409.9,180.4 
			418.1,180.4 409.2,222.5 		"/>
		<path id="XMLID_1_" d="M442.9,211.1c0-2-1-3.6-3.6-4.7l-5.1-2.3c-5.3-2.4-8.1-6.1-8.1-11.3c0-7.9,6.8-13.3,14.9-13.3
			c11.2,0,14.3,7.7,14.3,12.2l-7.7,1.3c0-1.6-0.7-6.4-7-6.4c-3.7,0-6.3,2.6-6.3,5.3c0,2.3,1.4,3.8,3.3,4.6l4.9,2.1
			c6.2,2.7,8.8,6.6,8.8,11.6c0,6.6-5.5,12.9-14.8,12.9c-11.6,0-15.9-7.9-15.9-13.8c0-0.2,0-0.8,0.1-1.2l7.7-1.3
			c-0.1,0.5-0.1,0.8-0.1,1.2c0,3.9,2.3,7.8,8,8C440.4,216.2,442.9,214.1,442.9,211.1"/>
	</g>
</g>
</svg>
