<svg xmlns="http://www.w3.org/2000/svg" viewBox="0 0 276 80" fill="none">
  <path d="M76.8 25.4c-4.5 0-8.1 3.6-8.1 8.1 0 4.5 3.6 8.1 8.1 8.1 4.5 0 8.1-3.6 8.1-8.1 0-4.5-3.6-8.1-8.1-8.1z" fill="#0066CC"/>
  <path d="M39.2 25.3h10.6c1.6 0 2.8.3 3.8.9 1.8 1.1 2.9 3.1 2.9 5.4 0 2.3-1 4.3-2.8 5.5-1 .6-2.3.9-3.8.9h-3.6v7.2h-7.1V25.3zm7.1 7.9h1.7c1.4 0 2.2-.6 2.2-1.8 0-1.1-.8-1.7-2.2-1.7h-1.7v3.5zM58.3 25.3h7.1v24.9h-7.1V25.3zM86 25.3h6.8l7.3 13.9V25.3h7v24.9h-6.9l-7.2-13.4v13.4H86V25.3zM134.3 25.3h8.2l4.1 16.2 4.2-16.2h8.2l-8.1 25h-8.5l-8.1-25zM131.9 50.2l-5.6-7c3.6-1.2 5.4-4.1 5.4-8.2 0-2.9-1-5.3-2.9-6.8-1.6-1.2-3.5-1.8-6.2-1.8h-10.6v24.9h7.1v-6.4h2.1l4.2 6.4h8.4l-1.9-1.1zm-12.9-11.5v-8.1h2.5c3 0 4.5 1.3 4.5 4.1 0 2.7-1.5 4-4.5 4h-2.5zM162.5 25.3h6.1v18.9h9.2v6h-15.3V25.3zM200.5 45.6h-7.7l-1.2 4.6h-7.1l8.7-24.9h6.9l8.7 24.9h-7.2l-1.1-4.6zm-1.3-5.2l-2.5-10.3-2.6 10.3h5.1zM216.4 25.3l2.3 6.2H210l-6.9 18.7h7.3L217 31.5h3.1l1.3-6.2h-5zM218.3 25.3h19.8v6.2h-6.2v18.7h-7.4V31.5h-6.2v-6.2z" fill="#FF7043"/>
</svg>