<svg xmlns="http://www.w3.org/2000/svg" viewBox="0 0 131 50" fill="none">
  <path d="M86.8 18.9c-1.8 0-3.2 1.5-3.2 3.3 0 1.8 1.4 3.3 3.2 3.3 1.8 0 3.2-1.5 3.2-3.3 0-1.8-1.4-3.3-3.2-3.3z" fill="#0066CC"/>
  <path d="M86.8 27.1c-2.4 0-4.5-2-4.5-4.9 0-2.7 2-4.9 4.5-4.9 2.5 0 4.5 2.1 4.5 4.9 0 2.7-2 4.9-4.5 4.9zM26.5 17.5h2.7v4h5.1v-4h2.7v9.5h-2.7v-3.8h-5.1v3.8h-2.7v-9.5zM38.6 17.5h2.5v4.1c0 .7-.1 1.7-.1 1.7h.1s.6-1.2 1.2-1.8l3-4h3.1L44.7 22l4.1 5h-3.2l-2.8-3.6-1.6 1.8v1.8h-2.5v-9.5zM51.2 17.5h2.8c.8 0 1.3.1 1.3.1v1.9s-.3-.1-1.1-.1h-1.1v2h2.2v1.9h-2.2v2h1.5c.9 0 1.4-.1 1.4-.1v1.8s-.6.1-1.5.1h-3.2v-9.6zM57.3 17.5h3.1c1.9 0 3.3.6 3.3 2.5 0 1-.4 1.5-1.1 1.8v.1c.9.3 1.4.9 1.4 2.1 0 2.1-1.6 3.1-3.5 3.1h-3.2v-9.6zm2.5 3.7h.4c.5 0 .9-.3.9-.9 0-.7-.4-.9-1-.9h-.3v1.8zm0 4.1h.5c.7 0 1.2-.3 1.2-1.1 0-.8-.5-1.1-1.3-1.1h-.5v2.2h.1zM67 17.5H71c1.2 0 1.7.2 2.1.6.4.3.7.9.7 1.7 0 1.1-.7 1.8-1.6 1.9v.1c.7.1 1 .4 1.1 1.3l.2 1.2c.1.6.2 1.1.5 1.3v.3h-2.8c-.2-.3-.3-.9-.3-1.4l-.1-1.1c-.1-.6-.3-.9-.9-.9h-.4v3.4H67v-9.4zm2.6 4.3h.4c.7 0 1.1-.3 1.1-1 0-.8-.4-1-1.1-1h-.4v2z" fill="#0066CC"/>
  <path d="M76.3 17.5h2.5L81 22c.4.8.7 1.7.7 1.7h.1s.3-1 .7-1.7l2.1-4.5h2.4L82.2 27h-1.3l-4.6-9.5z" fill="#0066CC"/>
  <path d="M90.5 17.5H95c2.9 0 5.1 1.9 5.1 4.7s-2.2 4.8-5.1 4.8h-4.5v-9.5zm2.7 7.7h1.6c1.5 0 2.5-1.2 2.5-3s-1-2.9-2.5-2.9h-1.6v5.9z" fill="#0066CC"/>
  <path d="M101.6 17.5h2.7L108 27h-2.8l-.6-1.7h-3.2l-.6 1.7h-2.8l3.6-9.5zm2.7 6.1l-1-3.1s-.1-.5-.2-.8h-.1c0 .3-.1.8-.2.8l-1 3.1h2.5z" fill="#0066CC"/>
  <path d="M114.4 24.5c0 1 .6 1.3 1.5 1.3.8 0 1.3-.2 1.3-.2v1.5s-.8.2-1.7.2c-2 0-3.5-.9-3.5-3.1v-4.9H110v-1.6h2.1v-2.2h2.4v2.2h2.9v1.6h-2.9v4.3c-.1 0-.1.9-.1.9z" fill="#FF7043"/>
  <path d="M122.4 17.5h2.8l2.5 4.4c.4.7.7 1.6.7 1.6h.1s.3-.9.7-1.6l2.5-4.4h2.8v9.5h-2.5v-3.9c0-.8.1-2.1.1-2.1h-.1s-.3.9-.7 1.7l-1.8 3h-1.9l-1.8-3c-.4-.7-.7-1.7-.7-1.7h-.1s.1 1.3.1 2.1v3.9h-2.5v-9.5zM5 17.5h2.7v4h5.1v-4h2.7v9.5h-2.7v-3.8h-5.1v3.8H5v-9.5zm14.1 0h2.6v7.7h4.5v1.9h-7.1v-9.6z" fill="#FF7043"/>
</svg>