<svg xmlns="http://www.w3.org/2000/svg" viewBox="0 0 240 100" fill="none">
  <path d="M31.2 26.3h177.6v47.4H31.2V26.3z" fill="#0066CC"/>
  <path d="M122.9 65V35h8.8v30H123z" fill="white"/>
  <path d="M146 35h-8.8v30h8.8V35zm-26.6 0h-8.8v30h8.8V35zm48.4 0c-3.3 0-6.5 1.2-8.9 3.4v-3.4h-8.7v30h8.7V48.2c0-3.2 2.3-5.7 5.4-5.7 3.1 0 5.4 2.6 5.4 5.7V65h8.7V48.1c0-7.4-4.8-13.1-10.6-13.1zm-70.6 0c-3.3 0-6.5 1.2-8.9 3.4v-3.4h-8.7v30h8.7V48.2c0-3.2 2.3-5.7 5.4-5.7 3.1 0 5.4 2.6 5.4 5.7V65h8.7V48.1c0-7.4-4.8-13.1-10.6-13.1z" fill="white"/>
</svg>