<svg xmlns="http://www.w3.org/2000/svg" viewBox="0 0 300 140" fill="none">
  <path d="M177.2 36.3c9.9 0 19.1 4.4 25.3 12l-6.9 5.9c-4.7-5.6-11.3-8.8-18.4-8.8-13.7 0-24.9 11.6-24.9 26 0 14.4 11.2 26 24.9 26 7.5 0 14.4-3.5 19.1-9.6l7.3 5.5c-6.4 8.3-16 13.1-26.4 13.1-18.8 0-34.1-15.8-34.1-35s15.3-34.8 34.1-34.8v-.3z" fill="#0066CC"/>
  <path d="M209.5 37.1H220l16.2 38.3 16.2-38.3h10.4v69.8h-9.1V54l-15.1 35.6h-4.7L218.7 54v52.9h-9.1V37.1h-.1z" fill="#0066CC"/>
  <path d="M156.7 37.1h9.1v69.8h-9.1V37.1z" fill="#0066CC"/>
  <path d="M29.2 42.8v7.9h16.6v8.8H29.2v9h17.6v8.8H20.1V34h26.2v8.8H29.2zM68.3 37.1c-13.1 0-19.7 8.2-19.7 18.5v32.4h9.1V56.9c0-7.2 4.4-10.9 10.6-10.9h5.3v-8.8l-5.3-.1zM80.1 62.3c0-15.2 11.3-26.4 25.3-26.4 7.3 0 13.8 3.6 17.7 9.3V37.1h9.1v69.8h-9.1v-9.3c-3.9 5.6-10.4 9.3-17.7 9.3-14 0-25.3-11.2-25.3-26.4v-18.2zm43 9.1v-18.2c0-9.1-7.3-17.2-16.9-17.2-9.7 0-17 8.1-17 17.2v18.2c0 9.1 7.3 17.2 17 17.2 9.6 0 16.9-8.2 16.9-17.2z" fill="#0066CC"/>
  <path d="M264.1 71.4c0 9.1 7.3 17.2 17 17.2 9.6 0 16.9-8.2 16.9-17.2V37.1h-9.1v34.3c0 5.3-3.3 8.2-7.8 8.2s-7.9-3-7.9-8.2V37.1H264v34.3h.1z" fill="#FF7043"/>
</svg>