<svg xmlns="http://www.w3.org/2000/svg" viewBox="0 0 300 100" fill="none">
  <path d="M37.1 30.8L26.3 64.2h-6.6l10.8-33.4h6.6zM57.1 30.8L46.3 64.2h-6.6l10.8-33.4h6.6z" fill="#0066CC"/>
  <path d="M117.7 30.8h6.5v33.4h-6.5V30.8zM94.4 30.8h6.5v27.4h11v6h-17.5V30.8zM254.7 30.8h6.5v27.4h11v6h-17.5V30.8zM227.2 49.5c0 9.7 5.2 15 12.9 15 4.5 0 7.7-1.6 10.1-4.8l4.2 3.3c-3.3 4.3-7.8 6.7-14.4 6.7-11.1 0-19.3-7.5-19.3-19.7 0-11.6 7.9-19.7 18.4-19.7 11.3 0 17.5 8.4 17.5 18v1.2h-29.4zm23-4.5c-.5-5.8-3.7-9.9-10.1-9.9-5.6 0-9.9 3.9-10.9 9.9H250zM132.1 49.5c0 9.7 5.2 15 12.9 15 4.5 0 7.7-1.6 10.1-4.8l4.2 3.3c-3.3 4.3-7.8 6.7-14.4 6.7-11.1 0-19.3-7.5-19.3-19.7 0-11.6 7.9-19.7 18.4-19.7 11.3 0 17.5 8.4 17.5 18v1.2h-29.4zm23-4.5c-.5-5.8-3.7-9.9-10.1-9.9-5.6 0-9.9 3.9-10.9 9.9h21zM80.7 30.8h6.5l-12.5 33.4h-5.4L56.8 30.8h6.8l8.5 25.2 8.6-25.2zM77.1 30.8l-10.8 33.4h-6.6l10.8-33.4h6.6z" fill="#0066CC"/>
  <path d="M214.5 30.8H221v33.4h-6.5V30.8zM188.4 30.8h6.2v6.5c1.7-4.2 5.2-7 10.6-6.9v6.8h-.3c-6.1 0-10.3 3.7-10.3 11.3v15.7h-6.2V30.8z" fill="#FF7043"/>
</svg>