<svg xmlns="http://www.w3.org/2000/svg" viewBox="0 0 120 24"><path d="M39.3 15.8c0 2.3-1.7 3.6-4.6 3.6-1.9 0-3.4-.5-4.7-1.8-.3-.3-.3-1 0-1.3h0a.85.85 0 0 1 1.3 0c1 .9 2 1.3 3.3 1.3 1.6 0 2.6-.7 2.6-1.8 0-.9-.5-1.4-2.3-2l-.9-.3c-2.9-1-3.8-2.1-3.8-3.7 0-2.1 1.6-3.4 4.2-3.4 1.7 0 3 .5 4.2 1.6.3.3.3.9 0 1.3h0a1.07 1.07 0 0 1-1.4.1c-.9-.8-1.8-1.2-2.9-1.2-1.3 0-2.1.6-2.1 1.5s.6 1.4 2.4 2.1l.9.3c3 .9 3.8 1.9 3.8 3.7zm19.5-9.5c-1.6 0-3 .4-4.5 1.8-.3.3-.3 1 0 1.3l.1.1a.85.85 0 0 0 1.3 0c1-1.1 2-1.4 3.1-1.4 1.8 0 3 1 3 2.7v.6h-3.3c-3.2 0-5.1 1.4-5.1 3.9 0 2.3 1.8 4 4.3 4 1.8 0 3.2-.7 4.1-1.8v.5c0 .5.4.9 1 .9h.1c.5 0 .9-.4.9-1v-7.2c0-2.7-1.9-4.4-5-4.4zm3 8c0 1.9-1.4 3.3-3.6 3.3-1.7 0-2.8-.8-2.8-2.2s1.1-2.2 3-2.2h3.3v1.1zm48-8c-2.7 0-4.7 1.5-4.7 2.6 0 .3.1.5.3.7l.1.1c.2.2.4.2.6.2.4 0 .7-.3 1.1-.7.5-.5 1.3-1 2.7-1 1.9 0 3 1 3 2.7v.6h-3.3c-3.2 0-5.1 1.4-5.1 3.9 0 2.3 1.8 4 4.3 4 1.8 0 3.2-.7 4.1-1.8v.5c0 .5.4.9 1 .9h.1c.5 0 .9-.4.9-1v-7.2c-.2-2.8-2-4.5-5.1-4.5zm2.9 8c0 1.9-1.4 3.3-3.6 3.3-1.7 0-2.8-.8-2.8-2.2s1.1-2.2 3-2.2h3.3v1.1zm-23 1.5V.9c0-.5-.4-.9-1-.9h-.1c-.5 0-1 .4-1 .9v7.2c-.9-1.2-2.2-1.8-3.9-1.8-3.4 0-5.2 2.4-5.2 6.5s1.9 6.5 5.2 6.5c1.9 0 3.3-.7 4.1-2.1.4 1 1.2 1.9 2 1.9.5 0 1-.4 1-.9.1-.9-1.1-.8-1.1-2.4zm-1.9-1.9c-.3 2.3-1.4 3.7-3.5 3.7-2.4 0-3.6-1.7-3.6-4.7s1.2-4.7 3.6-4.7c2.1 0 3.3 1.4 3.5 3.8v1.9zm-16-7.6c-1.7 0-3.1.6-4 1.8v-.5c0-.5-.4-.9-.9-.9h-.1c-.5 0-1 .4-1 .9V23c0 .5.4.9 1 .9h.1c.5 0 1-.4 1-.9v-5.5c.9 1.2 2.2 1.8 3.9 1.8 3.4 0 5.2-2.4 5.2-6.5s-1.8-6.5-5.2-6.5zm-.4 11.3c-2.4 0-3.6-1.7-3.6-4.6v-.2c0-2.9 1.2-4.6 3.6-4.6S75 9.9 75 12.9c0 2.9-1.3 4.7-3.6 4.7zm31-1a1.07 1.07 0 0 0-1.4-.1c-1 .8-1.9 1.1-3.1 1.1-2.4 0-3.7-1.5-3.9-4.1h7.8c.7 0 1.3-.5 1.3-1.2 0-3.7-1.8-5.9-5.5-5.9S92 8.8 92 12.9s2.1 6.5 6 6.5c1.9 0 3.1-.5 4.5-1.6.2-.3.3-.9-.1-1.2h0zm-5-8.5c2.3 0 3.4 1.3 3.5 3.7h-7c.3-2.3 1.5-3.7 3.5-3.7zm-45.8 3.6v6.4c0 .5-.4 1-1 1h-.1c-.5 0-1-.4-1-1v-6.3c0-2.4-.9-3.6-3.1-3.6S43 9.6 43 12v6.2c0 .5-.4 1-1 1h-.1c-.5 0-1-.4-1-1V7.6c0-.5.4-.9 1-.9h.1c.5 0 .9.4.9.9v.5A5.42 5.42 0 0 1 47 6.3c3.2 0 4.6 1.8 4.6 5.4zm68.4 6.6c0 .5-.5.9-1 .9-1.1 0-2.2-1.4-2.2-2.9V.9c0-.5.4-.9 1-.9h.1c.5 0 1 .4 1 .9v14.8c-.1 1.7 1.1 1.6 1.1 2.6z" fill-rule="evenodd"/><g transform="translate(0 1.395)"><defs><filter id="A" filterUnits="userSpaceOnUse" x="0" y="-.1" width="26" height="22.7"><feColorMatrix values="1 0 0 0 0  0 1 0 0 0  0 0 1 0 0  0 0 0 1 0"/></filter></defs><mask maskUnits="userSpaceOnUse" x="0" y="-.1" width="26" height="22.7" id="B"><g filter="url(#A)"><path d="M0 22.6h26V-.1H0z" fill-rule="evenodd" fill="#fff"/></g></mask><path d="M5.4 22c.3.5.6.6 1.1.6h10.3c.6 0 .9-.1 1.2-.6l8-10c.2-.2 0-.6-.3-.6H13.1c-.6 0-.9-.2-1.1-.6L5.7 0c-.2-.2-.6-.2-.7.1L.1 11.7c-.2.5-.2.9.1 1.3l5.2 9h0z" mask="url(#B)" fill-rule="evenodd" fill="#e40046"/></g><path d="M25.7 11.2h-6.1c-.6 0-.9-.2-1.1-.6l-2.4-4.1h-4.8c-.6 0-.9-.2-1.1-.6L7.2.8c-.2-.4.1-.8.4-.8h11.6c.6 0 .9.2 1.1.6l5.8 9.9c.1.3-.1.7-.4.7z" fill-rule="evenodd" fill="#e40046"/></svg>
