<svg xmlns="http://www.w3.org/2000/svg" viewBox="0 0 88 31" fill="none">
  <path d="M48.1 7.5h9.9v2.4h-7v3.6h6.8v2.3h-6.8v4.1h7.1v2.4h-10V7.5zM44.2 22.4h-2.9v-6.1c0-1.4-.7-2.1-2-2.1-1.2 0-2.6.9-2.6 2.9v5.4h-2.9V11.7h2.8v1.1c.8-.8 2-1.4 3.4-1.4 2.5 0 4.2 1.5 4.2 4.5v6.5zM29.9 16.5c0 2.9-2.3 5.2-5.8 5.2-3.5 0-5.8-2.3-5.8-5.2 0-2.9 2.3-5.2 5.8-5.2 3.5.1 5.8 2.3 5.8 5.2zm-8.7 0c0 1.6 1.2 2.8 2.9 2.8 1.8 0 2.9-1.2 2.9-2.8 0-1.6-1.2-2.8-2.9-2.8-1.7 0-2.9 1.2-2.9 2.8zM17.1 15.3c0 4.2-3 7.4-7.6 7.4-4.5 0-7.6-3.2-7.6-7.4 0-4.2 3.1-7.4 7.6-7.4 4.6 0 7.6 3.2 7.6 7.4zm-12.2 0c0 2.7 1.9 4.7 4.6 4.7s4.6-2 4.6-4.7c0-2.7-1.9-4.7-4.6-4.7s-4.6 2-4.6 4.7zM18.1 7.5h2.9v14.9h-2.9V7.5zM69.9 12.8c0-3.2 2-5.7 5.6-5.7 3.5 0 5.6 2.3 5.6 5.8 0 0 0 .3 0 .5h-8.3c.1 1.8 1.3 3 3 3 1.2 0 2.1-.6 2.6-1.5h2.7c-.7 2.3-2.7 3.8-5.3 3.8-3.5.1-5.9-2.1-5.9-5.9zm8.3-.9c-.3-1.5-1.3-2.5-2.8-2.5-1.5 0-2.5 1-2.7 2.5h5.5zM87.7 16.8h-2.6c-.3 1-1.1 1.7-2.4 1.7-1.7 0-2.8-1.2-2.8-2.8 0-1.6 1.1-2.8 2.8-2.8 1.4 0 2.1.6 2.4 1.6h2.6c-.5-2.3-2.6-3.8-5.1-3.8-3.1 0-5.7 2.1-5.7 5.1 0 3 2.5 5.1 5.7 5.1 2.6-.1 4.6-1.6 5.1-4.1z" fill="#0066CC"/>
  <path d="M64.4 0H53.7l-5.3 5.3h10.7L64.4 0z" fill="#FF7043"/>
</svg>