<svg xmlns="http://www.w3.org/2000/svg" viewBox="0 0 156 62" fill="none">
  <path d="M77.9 24.5c3.1 0 5.6 2.5 5.6 5.6s-2.5 5.6-5.6 5.6-5.6-2.5-5.6-5.6 2.6-5.6 5.6-5.6" fill="#0066CC"/>
  <path d="M18.2 24.5l4.5 10.8h-3l-.9-2.3h-5l-.9 2.3h-3l4.5-10.8h3.8zm-.5 6.1l-1.6-4.2-1.6 4.2h3.2zM33.6 32c0 2.2-1.8 3.5-4.7 3.5-1.8 0-3.2-.5-4.4-1.3l1.2-2.1c.9.6 1.9 1 3.1 1 1.1 0 1.8-.4 1.8-1.1 0-.7-.4-1-2.4-1.5-2.4-.6-3.9-1.3-3.9-3.5 0-2 1.7-3.4 4.3-3.4 1.8 0 3.1.4 4.1 1.1l-1.1 2.2c-.9-.5-1.8-.9-3-.9-1 0-1.5.4-1.5 1 0 .7.5 1 2.4 1.5 2.3.7 3.9 1.4 3.9 3.5M46.4 24.5v10.8h-2.9V30h-5v5.3h-2.9V24.5h2.9v3.2h5v-3.2h2.9zM58.1 29.9c0 3.2-2.5 5.6-5.9 5.6s-5.9-2.4-5.9-5.6 2.5-5.6 5.9-5.6 5.9 2.4 5.9 5.6zm-8.8 0c0 1.7 1.3 3 2.9 3s2.9-1.3 2.9-3-1.3-3-2.9-3-2.9 1.3-2.9 3zM93.9 24.5v10.8h-2.9V30h-5v5.3h-2.9V24.5h2.9v3.2h5v-3.2h2.9zM101.2 24.5c3.4 0 5.8 2.2 5.8 5.4 0 3.2-2.3 5.4-5.8 5.4h-5.5V24.5h5.5zm-.1 8.5c1.7 0 2.9-1.2 2.9-3.1s-1.2-3.1-2.9-3.1h-2.5v6.2h2.5zM114.8 24.5l4.5 10.8h-3l-.9-2.3h-5l-.9 2.3h-3l4.5-10.8h3.8zm-.5 6.1l-1.6-4.2-1.6 4.2h3.2zM128.4 28.2c0 2.7-1.9 3.8-4.4 3.8h-1.4v3.2h-2.9V24.5h4.3c2.5 0 4.4 1.2 4.4 3.7zm-2.9 0c0-.9-.7-1.4-1.7-1.4h-1.3v2.7h1.3c1 0 1.7-.4 1.7-1.3zM134.9 27.1v1.8h4.6v2.5h-4.6v1.4h5.2v2.5h-8.1V24.5h8.1v2.5h-5.2zM142.8 24.5h2.9v10.8h-2.9V24.5z" fill="#0066CC"/>
</svg>